HIERARCHY
ROOT pelvis
{
  OFFSET 0 100 0
  CHANNELS 6 Xposition Yposition Zposition Zrotation Xrotation Yrotation
  JOINT pelvis_right_femur
  {
    OFFSET -10.78128 -3.44521 -0.5502486
    CHANNELS 3 Zrotation Xrotation Yrotation
    JOINT right_femur_tibia
    {
      OFFSET -0.8047443 -44.0398 -0.1307829
      CHANNELS 3 Zrotation Xrotation Yrotation
      JOINT right_tibia_foot
      {
        OFFSET 3.006224 -47.83518 -5
        CHANNELS 3 Zrotation Xrotation Yrotation
        End Site
        {
          OFFSET 0 -5 15
        }
      }
    }
  }
  JOINT pelvis_left_femur
  {
    OFFSET 10.78128 -3.44521 -0.5502486
    CHANNELS 3 Zrotation Xrotation Yrotation
    JOINT left_femur_tibia
    {
      OFFSET 0.8047443 -44.0398 -0.1307829
      CHANNELS 3 Zrotation Xrotation Yrotation
      JOINT left_tibia_foot
      {
        OFFSET -4.370144 -48.10324 -4.275266
        CHANNELS 3 Zrotation Xrotation Yrotation
        End Site
        {
          OFFSET 0 -5 15
        }
      }
    }
  }
  JOINT pelvis_spine1
  {
    OFFSET 0 6.468898 -3.129235
    CHANNELS 3 Zrotation Xrotation Yrotation
    JOINT spine1
    {
      OFFSET 0 23.15396 4.99043
      CHANNELS 3 Zrotation Xrotation Yrotation
      JOINT spine2
      {
        OFFSET 0 20.79997 -5.064912
        CHANNELS 3 Zrotation Xrotation Yrotation
        JOINT neck
        {
          OFFSET 0 14.38658 9.616178
          CHANNELS 3 Zrotation Xrotation Yrotation
          End Site
          {
            OFFSET 0 20 0
          }
        }
      }
      JOINT right_manubrium
      {
        OFFSET -5.722621 16.35077 3.967754
        CHANNELS 3 Zrotation Xrotation Yrotation
        JOINT right_clavicle
        {
          OFFSET -13.16364 1.694482 -4.693211
          CHANNELS 3 Zrotation Xrotation Yrotation
          JOINT right_humerus
          {
            OFFSET -28.5034 -0.3100689 -2.792744
            CHANNELS 3 Zrotation Xrotation Yrotation
            JOINT right_radius
            {
              OFFSET -25.15693 0.02248979 -1.271978
              CHANNELS 3 Zrotation Xrotation Yrotation
              End Site
              {
                OFFSET -15 0 0
              }
            }
          }
        }
      }
      JOINT left_manubrium
      {
        OFFSET 5.722621 16.35077 3.967754
        CHANNELS 3 Zrotation Xrotation Yrotation
        JOINT left_clavicle
        {
          OFFSET 13.16364 1.694482 -4.693211
          CHANNELS 3 Zrotation Xrotation Yrotation
          JOINT left_humerus
          {
            OFFSET 29.39168 -1.063119 -2.237045
            CHANNELS 3 Zrotation Xrotation Yrotation
            JOINT left_radius
            {
              OFFSET 24.59957 -0.9528479 0.9047498
              CHANNELS 3 Zrotation Xrotation Yrotation
              End Site
              {
                OFFSET 15 -0 -0
              }
            }
          }
        }
      }
    }
  }
}
MOTION
Frames: 21
Frame Time: 0.0416666666667
1466.265 100.4346 2627.33 2.758861 -2.834791 57.31672 5.555403 -20.61468 4.839013 -0 17.18099 -0 -2.797953 -5.043228 -8.013756 -3.406859 16.65897 -10.03799 -0 39.68138 -0 -8.900014 -11.13992 12.2509 -0.2113128 -0.3119429 2.156887 2.135066 8.530186 -7.7361 2.114715 22.01595 6.052163 2.204795 -18.90776 8.257492 3.425779 -12.67963 10.38766 90.46617 28.45599 -22.73884 -0 0 6.191032 -16.2896 13.55692 7.825543 5.314722 -20.60605 -3.394096 -83.78989 24.83477 7.004851 0 0 -24.08188 2.40337 9.415372 11.2554
1471.588 101.5254 2631.283 3.313541 -3.36973 56.79924 6.397218 -16.02632 5.532609 -0 19.22032 -0 -3.01405 -5.180804 -7.162036 -3.143686 11.2431 -9.656559 -0 49.99941 -0 -9.778076 -8.660739 12.66315 0.1656093 0.245794 3.118657 1.993756 9.077215 -7.068273 2.133119 22.1954 5.977059 2.475404 -19.08387 7.951582 4.055787 -13.27543 10.96247 89.21657 28.68786 -21.33159 -0 0 7.302843 -16.1594 13.61438 7.777895 4.584269 -19.94392 -3.357977 -85.86411 25.49571 10.28991 0 0 -22.03552 1.415815 9.393609 12.73018
1476.667 102.7618 2635.062 4.539821 -3.729545 56.19761 6.248409 -10.7075 5.379975 -0 18.99076 -0 -2.873493 -6.300313 -6.561629 -2.96651 5.123581 -8.719002 -0 56.47159 -0 -9.935487 -7.342997 13.54487 -0.008024528 0.8549927 4.163113 1.637481 9.479718 -6.280492 2.231667 22.67346 5.678463 2.539679 -18.522 7.582427 4.097818 -13.9107 11.32913 87.99998 28.45419 -19.43928 -0 0 8.512864 -16.87106 13.57069 8.038334 4.179119 -19.43363 -3.446323 -87.19107 25.62845 12.2842 0 0 -20.45337 0.7418171 9.353502 13.39837
1481.509 103.8674 2638.668 5.776586 -3.9825 55.53962 5.699535 -5.160644 4.88563 -0 17.49266 -0 -2.64904 -8.210981 -6.0064 -2.590442 -1.231985 -7.61588 -0 58.56744 -0 -9.639405 -6.726006 14.70474 -0.3620414 1.389426 5.128829 1.191218 9.694902 -5.476403 2.325156 23.20268 5.333478 2.482807 -17.73594 7.244609 3.767059 -14.72223 11.52605 86.70888 28.04568 -17.11809 -0 0 10.04731 -18.01848 13.3835 8.611296 4.012209 -18.93882 -3.513903 -88.17177 25.47567 13.78391 0 0 -18.95169 0.316881 9.314712 13.59302
1486.183 104.647 2642.104 6.557033 -4.102968 54.82018 5.101485 0.1885215 4.301725 -0 15.40486 -0 -2.468529 -10.47188 -5.283709 -1.915048 -7.603191 -6.496557 -0 56.56113 -0 -9.086879 -6.464465 15.92641 -0.6717372 1.773581 5.968347 0.7523568 9.772231 -4.753859 2.319655 23.5665 5.113797 2.416704 -17.14234 6.969417 3.307508 -15.807 11.63856 85.258 27.78884 -14.51879 -0 0 12.0095 -19.42247 13.14207 9.538872 4.003045 -18.45278 -3.490593 -89.0973 25.13704 15.41599 0 0 -17.47771 0.05219103 9.236405 13.62365
1490.799 104.9652 2645.39 6.738346 -4.086345 54.03765 4.601503 5.035483 3.767286 -0 13.26352 -0 -2.254289 -12.71591 -4.363657 -0.9564175 -13.66255 -5.399126 -0 51.05539 -0 -8.418526 -6.398383 17.08163 -0.8325245 1.965647 6.66703 0.3603873 9.763537 -4.159431 2.199847 23.66135 5.080498 2.380907 -16.88297 6.779751 2.833863 -17.15381 11.70256 83.6563 27.69338 -11.80191 -0 0 14.39852 -21.00488 12.91729 10.77739 4.10174 -17.97413 -3.368566 -90.06595 24.65301 17.3857 0 0 -16.06636 -0.1462032 9.061032 13.6926
1495.482 104.7663 2648.57 6.385636 -3.958878 53.2102 4.235163 9.173798 3.39022 -0 11.64815 -0 -1.866209 -14.63888 -3.340124 0.1655327 -18.97697 -4.383528 -0 43.05897 -0 -7.745275 -6.464336 18.10264 -0.8198307 1.950389 7.220449 0.02130767 9.692974 -3.695641 2.017961 23.47844 5.205312 2.363912 -16.93484 6.705593 2.373169 -18.64901 11.70877 82.01742 27.58205 -9.147109 -0 0 17.10234 -22.65018 12.72176 12.17738 4.261407 -17.46646 -3.160326 -91.08141 24.07731 19.6396 0 0 -14.70764 -0.356971 8.756074 13.91218
1500.352 104.094 2651.711 5.707066 -3.752831 52.38014 3.944622 12.51124 3.250453 -0 11.14348 -0 -1.215143 -15.95169 -2.377723 1.201505 -23.09784 -3.594898 -0 34.07782 -0 -7.136728 -6.640553 18.9522 -0.6985066 1.735333 7.639742 -0.2735848 9.560082 -3.335492 1.863815 23.09092 5.400147 2.334804 -17.18737 6.767862 1.921572 -20.08609 11.62376 80.54728 27.27277 -6.77279 -0 0 19.85675 -24.16841 12.53137 13.50962 4.424104 -16.87755 -2.883745 -92.08667 23.49361 21.95707 0 0 -13.34041 -0.6141756 8.337698 14.29308
1505.512 103.0958 2654.895 5.012437 -3.497357 51.61111 3.590629 15.08526 3.377104 -0 12.23485 -0 -0.3174299 -16.37676 -1.672083 1.802914 -25.6697 -3.246088 -0 25.93369 -0 -6.6172 -6.922826 19.60626 -0.6183151 1.352741 7.950387 -0.5396605 9.358185 -3.035508 1.828725 22.63807 5.551294 2.266919 -17.47922 6.957667 1.485028 -21.20387 11.41584 79.48599 26.69172 -4.905159 -0 0 22.25923 -25.3443 12.3197 14.53043 4.524056 -16.17345 -2.566879 -92.97271 23.01005 24.01248 0 0 -11.89388 -0.9050844 7.872479 14.75628
1511.039 102.0078 2658.204 4.626318 -3.226159 50.98045 3.007741 17.00004 3.725666 -0 15.24816 -0 0.700292 -15.66066 -1.388291 1.660491 -26.51733 -3.506113 -0 20.25983 -0 -6.178411 -7.30797 20.03932 -0.7536089 0.8599964 8.172423 -0.7945056 9.106245 -2.757811 1.96267 22.27881 5.572262 2.158771 -17.64923 7.229212 1.10638 -21.77349 11.08737 79.0195 25.91151 -3.716493 -0 0 23.87641 -26.04541 12.08408 15.08021 4.50419 -15.3767 -2.261325 -93.6044 22.72592 25.48076 0 0 -10.34746 -1.189227 7.454801 15.18467
1516.964 101.1216 2661.683 4.749876 -2.972429 50.57226 2.096813 18.26946 4.173025 -0 20.32816 -0 1.636726 -13.58811 -1.57951 0.68221 -25.68576 -4.358378 -0 17.91173 -0 -5.785226 -7.774905 20.20614 -1.209063 0.3289127 8.298835 -1.048971 8.88573 -2.507402 2.23279 22.11458 5.466072 2.052758 -17.62132 7.510019 0.883295 -21.70783 10.70551 79.20289 25.15972 -3.295788 -0 0 24.40046 -26.32595 11.87174 15.17536 4.336283 -14.606 -2.05163 -93.85727 22.66888 26.17092 0 0 -8.813444 -1.410938 7.164322 15.48355
1523.237 100.7258 2665.31 5.349758 -2.748498 50.46883 0.9108742 18.66383 4.538399 -0 27.35548 -0 2.273608 -10.08092 -2.136162 -0.9324415 -23.43522 -5.561391 -0 18.61271 -0 -5.36977 -8.280041 20.03949 -1.948958 -0.1667737 8.28966 -1.292914 8.848033 -2.363058 2.506849 22.13168 5.355623 2.03336 -17.46833 7.721927 0.958248 -21.12755 10.40496 79.9347 24.79817 -3.669788 -0 0 23.7727 -26.43119 11.79924 15.02483 4.034549 -14.08776 -2.04731 -93.64601 22.75637 26.10228 0 0 -7.605565 -1.503018 7.029984 15.61605
1529.688 101.0057 2668.968 6.170332 -2.563868 50.72699 -0.3113886 17.72038 4.646099 -0 35.75031 -0 2.446423 -5.491314 -2.830461 -2.762529 -20.18264 -6.767497 -0 20.96004 -0 -4.856641 -8.795852 19.50709 -2.780343 -0.5451633 8.077179 -1.485964 9.143081 -2.455062 2.602215 22.22389 5.426179 2.172985 -17.36051 7.814873 1.434851 -20.3266 10.33024 81.00894 25.15265 -4.804744 -0 0 22.24637 -26.63912 12.00482 14.91436 3.659298 -14.07362 -2.343778 -92.96184 22.85467 25.45977 0 0 -7.161835 -1.417268 7.032092 15.61406
1536.042 101.9268 2672.469 6.909394 -2.503708 51.3452 -1.217672 15.00531 4.449568 -0 44.31679 -0 2.148375 -0.9153519 -3.494205 -4.317458 -16.33251 -7.716461 -0 22.92187 -0 -4.255171 -9.389955 18.71525 -3.408612 -0.6987552 7.580474 -1.569176 9.761602 -2.862962 2.427437 22.30262 5.760058 2.427646 -17.37273 7.815884 2.220857 -19.60744 10.51705 82.23307 26.13025 -6.526057 -0 0 20.35549 -26.98335 12.49601 14.96624 3.309635 -14.63593 -2.946271 -91.91466 22.92763 24.4158 0 0 -7.729185 -1.18873 7.141481 15.56258
1542.024 103.2093 2675.654 7.452709 -2.736396 52.25294 -1.532148 10.47993 4.10612 -0 51.41138 -0 1.620031 2.121096 -4.215495 -5.23853 -12.05954 -8.341993 -0 23.00924 -0 -3.736018 -10.2506 17.90808 -3.59552 -0.5196818 6.75386 -1.503812 10.43442 -3.507283 2.114575 22.39904 6.195234 2.59782 -17.32921 7.839523 2.957353 -19.05402 10.80613 83.50881 27.00468 -8.467125 -0 0 18.66097 -27.11792 13.04813 14.96164 3.104187 -15.52319 -3.71054 -90.68124 23.0933 22.90583 0 0 -9.074581 -0.929098 7.347792 15.50544
1547.502 104.4739 2678.502 7.891877 -3.314227 53.33231 -1.234675 4.602959 3.801669 -0 55.45226 -0 1.194704 2.807341 -5.221738 -5.483903 -7.334526 -8.696825 -0 21.33517 -0 -3.512299 -11.55385 17.25997 -3.340567 -0.001944377 5.658696 -1.300539 10.80579 -4.197963 1.92308 22.61058 6.445594 2.491709 -16.97398 7.990971 3.241213 -18.48595 10.94617 84.81137 26.96623 -10.27169 -0 0 17.33646 -26.63681 13.37159 14.53726 3.149229 -16.37658 -4.412558 -89.33306 23.4189 20.63328 0 0 -10.74219 -0.6664001 7.645491 15.29904
1552.534 105.4329 2681.145 8.259788 -3.983616 54.45567 -0.5754744 -1.936631 3.5005 -0 55.4436 -0 0.9433999 1.705655 -6.473687 -5.322295 -2.226478 -8.844303 -0 19.1009 -0 -3.593384 -13.29493 16.71826 -2.888362 0.6744972 4.474822 -0.9903138 10.73915 -4.824989 1.966514 22.93585 6.399669 2.140049 -16.33529 8.250029 2.979167 -17.70548 10.83008 86.14267 26.0105 -11.91001 -0 0 16.0788 -25.53548 13.37715 13.61035 3.492849 -17.11918 -4.907101 -87.79687 23.73959 17.44309 0 0 -12.64862 -0.2542787 8.027266 14.66056
1557.291 105.9588 2683.77 8.360051 -4.32903 55.52222 0.09407676 -8.51878 3.007933 -0 51.34701 -0 0.6708205 0.03007403 -7.603552 -5.100671 2.919854 -8.852936 -0 17.16204 -0 -3.778082 -15.2878 16.11492 -2.530287 1.228972 3.4166 -0.5848186 10.35637 -5.430802 2.122548 23.23014 6.208323 1.767303 -15.77472 8.495598 2.435915 -16.72909 10.56133 87.45144 24.95474 -13.62409 -0 0 14.53442 -24.16731 13.20858 12.45607 4.09216 -17.94837 -5.168381 -86.06461 23.83234 13.66441 0 0 -15.10366 0.4436975 8.475841 13.47763
1561.963 106.0372 2686.515 7.930644 -4.098889 56.48352 0.533032 -14.69249 2.219334 -0 44.13281 -0 0.2338013 -1.32621 -8.267165 -5.013904 7.609906 -8.789355 -0 15.58373 -0 -3.897792 -17.28445 15.33553 -2.411341 1.473977 2.627748 -0.09188802 9.845905 -6.096012 2.200192 23.32301 6.101098 1.580926 -15.66792 8.6278 1.95855 -15.74052 10.30018 88.61394 24.6318 -15.58452 -0 0 12.68003 -22.89072 13.08473 11.43154 4.83375 -19.00931 -5.217545 -84.30204 23.6533 9.96746 0 0 -18.27999 1.365385 8.923841 11.97893
1566.701 105.6928 2689.436 6.92121 -3.348239 57.35178 0.6791252 -20.11335 1.211848 -0 35.31685 -0 -0.3276356 -2.077917 -8.402221 -5.069132 11.46522 -8.686387 -0 14.17235 -0 -3.952647 -19.06802 14.38603 -2.508352 1.401959 2.134148 0.4506726 9.330102 -6.826786 2.114372 23.15085 6.188445 1.636183 -16.10783 8.632527 1.728639 -14.89865 10.12542 89.5557 25.29476 -17.72985 -0 0 10.75083 -21.89952 13.14497 10.7433 5.59354 -20.23623 -5.090405 -82.70585 23.32699 6.891029 0 0 -21.91877 2.300587 9.275169 10.548
1571.604 104.9514 2692.543 5.59054 -2.343232 58.17184 0.5795105 -24.45019 0.1638919 -0 26.34277 -0 -0.878205 -2.361371 -8.221444 -5.186851 14.40582 -8.536421 -0 12.95823 -0 -4.042275 -20.46545 13.38451 -2.723885 1.11854 1.868074 0.9708299 8.858794 -7.545369 1.919159 22.79793 6.408342 1.845496 -16.85908 8.553205 1.712813 -14.22433 10.01754 90.3241 26.60727 -19.84912 -0 0 8.962415 -21.24986 13.3914 10.39742 6.280564 -21.43654 -4.851552 -81.35906 22.98211 4.538001 0 0 -25.47963 3.064851 9.470171 9.435384
